HIERARCHY
ROOT Hips
{
	OFFSET -0.179506 -22.333345 2.821913
	CHANNELS 6 Xposition Yposition Zposition Zrotation Yrotation Xrotation 
	JOINT LeftUpLeg
	{
		OFFSET 6.951974 -9.140623 -0.681533
		CHANNELS 3 Zrotation Yrotation Xrotation
		JOINT LeftLeg
		{
			OFFSET 3.427654 -37.519855 -0.449580
			CHANNELS 3 Zrotation Yrotation Xrotation
			JOINT LeftFoot
			{
				OFFSET -1.359570 -39.796059 -4.369333
				CHANNELS 3 Zrotation Yrotation Xrotation
				JOINT LeftToe
				{
					OFFSET 2.635814 -5.579078 11.928840
					CHANNELS 3 Zrotation Yrotation Xrotation
					End Site
					{
						OFFSET 0.000000 0.000000 0.000000
					}
				}
			}
		}
	}
	JOINT RightUpLeg
	{
		OFFSET -6.767048 -9.052170 -0.431982
		CHANNELS 3 Zrotation Yrotation Xrotation
		JOINT RightLeg
		{
			OFFSET -3.829005 -38.256897 -0.885003
			CHANNELS 3 Zrotation Yrotation Xrotation
			JOINT RightFoot
			{
				OFFSET 1.577377 -39.841461 -4.231180
				CHANNELS 3 Zrotation Yrotation Xrotation
				JOINT RightToe
				{
					OFFSET -2.537174 -4.814398 12.334795
					CHANNELS 3 Zrotation Yrotation Xrotation
					End Site
					{
						OFFSET 0.000000 0.000000 0.000000
					}
				}
			}
		}
	}
	JOINT Spine
	{
		OFFSET -0.253288 10.896323 -2.669631
		CHANNELS 3 Zrotation Yrotation Xrotation
		JOINT Spine1
		{
			OFFSET 0.548704 13.518043 0.109247
			CHANNELS 3 Zrotation Yrotation Xrotation
			JOINT Spine2
			{
				OFFSET 0.145701 5.292222 2.542457
				CHANNELS 3 Zrotation Yrotation Xrotation
				JOINT Neck
				{
					OFFSET -0.277840 21.387037 -4.285703
					CHANNELS 3 Zrotation Yrotation Xrotation
					JOINT Head
					{
						OFFSET 0.515184 6.496960 5.134897
						CHANNELS 3 Zrotation Yrotation Xrotation
						End Site
						{
							OFFSET 0.000000 0.000000 0.000000
						}
					}
				}
				JOINT LeftShoulder
				{
					OFFSET 7.884473 12.174932 -3.408961
					CHANNELS 3 Zrotation Yrotation Xrotation
					JOINT LeftArm
					{
						OFFSET 9.097692 3.046888 -0.886815
						CHANNELS 3 Zrotation Yrotation Xrotation
						JOINT LeftForeArm
						{
							OFFSET 25.961220 -1.277207 -2.745643
							CHANNELS 3 Zrotation Yrotation Xrotation
							JOINT LeftHand
							{
								OFFSET 24.923361 0.898606 -0.117091
								CHANNELS 3 Zrotation Yrotation Xrotation
								End Site
								{
									OFFSET 0.000000 0.000000 0.000000
								}
							}
						}
					}
				}
				JOINT RightShoulder
				{
					OFFSET -8.175920 11.883285 -3.861528
					CHANNELS 3 Zrotation Yrotation Xrotation
					JOINT RightArm
					{
						OFFSET -9.601238 3.255117 -0.914307
						CHANNELS 3 Zrotation Yrotation Xrotation
						JOINT RightForeArm
						{
							OFFSET -25.374195 -1.332924 -2.140099
							CHANNELS 3 Zrotation Yrotation Xrotation
							JOINT RightHand
							{
								OFFSET -25.529810 0.777228 -0.555919
								CHANNELS 3 Zrotation Yrotation Xrotation
								End Site
								{
									OFFSET 0.000000 0.000000 0.000000
								}
							}
						}
					}
				}
			}
		}
	}
}
MOTION
Frames: 15
Frame Time: 0.033333
5.048680 72.874939 93.120537 -179.986479 -7.101444 76.723453 3.848993 -0.162231 -26.309371 -1.152782 15.490880 67.359721 -4.606088 4.786828 -14.738858 nan nan nan 0.196165 0.273694 -3.282770 -2.703933 -0.406724 35.963580 -5.202128 -3.556256 -31.767278 nan nan nan 2.092921 -0.082482 19.335988 1.322029 -5.114055 -1.181260 -0.253665 -0.149434 1.024016 -7.203836 18.052437 7.108591 -0.908432 18.527464 16.524881 -18.012967 -12.401970 0.229631 -53.660982 -26.149836 1.296403 64.982862 -55.720836 -46.900415 20.961279 -28.703359 -26.914090 14.900437 7.219801 7.008055 61.131422 4.752586 16.332151 -9.001612 88.178217 12.755350 -20.956286 24.853662 -38.617725 
4.581642 73.224709 92.819908 -179.749068 -7.547588 76.263114 4.434335 -0.448438 -28.700863 -0.463375 16.181542 70.389820 -4.152227 4.907010 -16.475704 nan nan nan -0.715288 -0.448521 -3.133029 -2.431209 0.050890 36.741676 -5.806975 -4.316972 -31.139952 nan nan nan 2.651327 0.017992 19.424275 1.150816 -5.277866 -1.227698 -0.698473 0.042962 1.445338 -7.616362 17.806085 6.340034 -0.691907 18.056342 17.830527 -17.832489 -12.653853 -0.742963 -52.841105 -26.906581 1.160613 63.763150 -55.916343 -46.179291 21.290380 -28.416413 -26.866678 14.940102 7.524082 6.368868 59.974936 5.237523 16.415417 -25.811495 88.203034 -4.044546 -21.732701 24.580946 -37.815429 
4.102175 73.512566 92.513824 -179.793458 -8.029776 75.952178 5.335760 -0.675988 -31.347088 0.225686 17.125264 73.071436 -3.764256 4.916490 -18.220308 nan nan nan -1.619149 -0.547985 -3.378652 -2.011689 0.568970 37.828265 -5.761105 -4.662500 -30.825018 nan nan nan 3.138557 0.195872 19.583741 1.024458 -5.271743 -1.358467 -1.131420 0.338176 1.827508 -7.860001 17.583496 5.734695 -0.586754 17.511995 18.900350 -17.489124 -12.975653 -1.707637 -52.063560 -27.848227 1.086701 62.199233 -55.771880 -44.943407 21.911923 -28.246513 -27.348090 14.915063 7.912776 5.594116 58.615806 5.877937 16.615576 -37.000912 88.094963 -15.202074 -22.953660 24.373966 -38.494322 
3.604218 73.747925 92.241737 179.923821 -8.475821 75.717898 6.528145 -0.726866 -34.128196 0.609938 18.055962 75.382957 -3.746783 4.623864 -19.784748 nan nan nan -2.382065 -0.115444 -3.714935 -1.788166 0.822672 38.946488 -5.163596 -4.832140 -30.837636 nan nan nan 3.586809 0.448416 19.884325 0.947955 -5.162389 -1.414080 -1.464538 0.721003 2.013551 -7.991606 17.374610 5.527614 -0.679857 16.946563 19.253386 -17.060874 -13.616585 -2.316521 -51.206105 -28.766911 0.948532 61.269629 -55.287755 -44.317347 22.467749 -28.086206 -27.594830 14.659251 8.487980 4.900809 57.221078 6.528153 16.792780 -47.656723 88.069134 -25.932403 -24.628849 23.792894 -40.072518 
3.090677 73.928612 92.016891 179.507982 -8.877255 75.475728 7.834026 -0.609594 -37.036129 0.649801 18.657089 77.661123 -3.778430 4.260156 -21.202192 nan nan nan -3.056586 0.269294 -3.983461 -1.725160 1.108092 39.928990 -4.617600 -4.874740 -30.975535 nan nan nan 4.042804 0.858746 20.402558 0.949540 -4.996374 -1.472154 -1.675164 0.980519 2.194575 -8.278988 17.129983 5.134312 -0.832793 16.360924 19.566430 -16.436273 -14.562060 -2.701452 -50.262907 -29.687065 0.562698 60.882449 -54.495549 -44.344178 22.486345 -28.247442 -27.468987 14.115028 9.159297 4.215011 55.808132 7.175260 16.792153 -69.006661 87.735233 -47.056096 -24.873917 23.271719 -39.900178 
2.564822 74.132805 91.866333 179.004521 -9.354467 75.157187 9.080972 -0.239754 -39.936965 0.824585 19.052476 79.995649 -3.620093 4.152387 -22.517640 nan nan nan -3.798184 0.380363 -4.002279 -1.725813 1.672892 40.660881 -4.277014 -4.766371 -31.233341 nan nan nan 4.378827 1.399719 21.043014 0.943314 -4.816710 -1.545587 -1.740211 1.075003 2.410112 -8.750127 16.863141 4.853611 -0.975680 15.994775 19.717300 -15.701118 -15.535892 -3.036538 -49.046844 -30.449836 -0.188733 60.599537 -53.816472 -44.931162 22.369903 -28.592653 -26.962898 13.377275 9.969890 3.729002 54.265926 7.897744 16.603874 -88.671914 87.201896 -67.049215 -24.985964 22.781933 -39.116604 
2.040853 74.387863 91.773102 178.458300 -10.083143 74.771520 10.204361 0.288728 -42.729622 1.219699 19.567217 82.242807 -3.447859 4.559194 -23.796264 nan nan nan -4.851083 0.209282 -3.820985 -1.639977 2.487974 41.226458 -4.055108 -4.568485 -31.650240 nan nan nan 4.368060 2.059474 21.762393 0.878719 -4.692510 -1.800777 -1.719060 1.148302 2.829115 -9.026569 16.767178 4.618550 -1.045783 15.653485 19.871601 -14.775513 -16.383462 -3.564652 -47.635199 -31.027168 -0.982596 60.270063 -53.278218 -45.316369 23.362461 -28.488397 -26.781185 12.555597 10.783205 3.258942 52.786767 8.706497 16.350859 -101.844651 86.841601 -81.018283 -26.149345 22.331786 -39.524734 
1.529971 74.656250 91.736938 177.976121 -10.991480 74.323807 11.325906 0.869019 -45.420021 1.552414 20.217277 84.320012 -3.269584 5.166232 -25.063388 nan nan nan -6.111112 -0.190116 -3.511134 -1.389932 3.599220 41.690329 -3.845177 -4.507902 -32.158193 nan nan nan 4.057523 2.759352 22.670259 0.794559 -4.690464 -2.315889 -1.697672 1.271739 3.466668 -9.041864 16.907290 3.956205 -0.938980 15.243096 20.515144 -13.682845 -16.998348 -4.406999 -46.119916 -31.576376 -1.788267 59.673811 -52.918998 -44.962292 24.326516 -28.188110 -26.903241 11.886567 11.465859 2.588183 51.388829 9.586655 16.102598 -109.029921 86.278052 -88.591145 -26.600709 22.526882 -39.929905 
1.063205 74.964767 91.782478 177.563556 -11.911216 73.739097 12.628574 1.421665 -47.883032 1.966482 20.938405 86.250928 -3.249575 5.601219 -26.320626 nan nan nan -7.317575 -0.633169 -2.986226 -1.202918 4.818869 42.073628 -3.646416 -4.562263 -32.554327 nan nan nan 3.593810 3.569836 23.608738 0.781275 -4.754850 -2.548526 -1.607953 1.340795 3.990327 -9.021379 17.188412 3.232793 -0.848954 14.776185 21.238617 -12.741992 -17.607209 -5.293497 -44.201394 -32.068632 -2.780237 58.844805 -52.687904 -44.660113 24.227929 -28.363445 -27.102016 11.494029 12.043603 1.915735 49.735033 10.583722 15.727578 -113.934926 85.581006 -93.620441 -26.479937 22.967152 -39.240348 
0.604325 75.312996 91.949188 177.224055 -12.785817 72.871888 13.929335 1.800909 -50.016974 2.432769 21.412124 88.042903 -3.273354 6.070514 -27.475902 nan nan nan -8.537026 -1.035542 -1.993867 -1.103456 5.938658 42.179240 -3.382355 -4.458948 -32.662273 nan nan nan 3.203799 4.393918 24.665067 0.782182 -4.917017 -2.273084 -1.453712 1.382881 4.210793 -9.208838 17.351347 2.771626 -0.833596 14.370922 21.460589 -11.948999 -18.330204 -6.171468 -41.964916 -32.340576 -3.910352 58.023191 -52.506275 -44.926707 24.340561 -28.613019 -27.043935 11.039882 12.717633 1.279787 47.914204 11.526047 15.038229 -119.126591 84.934591 -98.939854 -26.638750 23.201486 -37.509658 
0.155518 75.717102 92.248985 176.999094 -13.671643 71.794316 15.142832 2.242217 -51.877358 2.753663 21.645619 89.704141 -3.238563 6.342987 -28.388585 nan nan nan -9.855442 -1.385269 -0.435929 -1.049669 7.032337 41.645072 -3.004357 -4.262975 -32.458017 nan nan nan 2.897794 5.065313 25.950097 0.706575 -5.200911 -1.903985 -1.329421 1.461774 4.106928 -9.571174 17.334950 2.813816 -0.718775 14.321873 21.285981 -11.168428 -19.037386 -6.985824 -39.651186 -32.228088 -5.047315 57.222658 -52.453099 -45.075236 25.202511 -28.478285 -26.753391 10.272300 13.554051 0.571072 46.611175 11.969691 14.528712 -124.547404 84.163603 -104.913167 -26.824353 22.969728 -36.789599 
-0.271352 76.200890 92.644600 176.858197 -14.570563 70.696727 16.425733 2.881065 -53.562071 3.023716 21.958516 91.264639 -3.395057 6.330284 -29.226711 nan nan nan -11.205526 -1.629446 1.382331 -1.077647 8.116906 40.700611 -2.508755 -4.022800 -32.172853 nan nan nan 2.584854 5.614150 27.239934 0.574624 -5.534284 -1.516668 -1.266075 1.578725 3.715149 -9.886022 17.322742 3.166321 -0.518411 14.488746 21.168071 -10.291814 -19.568022 -7.663110 -37.622345 -31.927997 -6.139821 56.462811 -52.457816 -44.887388 25.771585 -28.342195 -26.694137 9.365951 14.357348 -0.154053 45.959770 12.206270 14.216199 -126.311545 83.252537 -107.271968 -26.234271 23.273447 -36.698675 
-0.704234 76.723640 93.118004 176.608318 -15.666565 69.934582 17.740553 3.686356 -55.319685 3.298134 22.518897 92.663437 -3.644054 6.492917 -30.078371 nan nan nan -12.757047 -1.729920 2.830560 -1.205721 9.135487 39.708009 -1.878186 -3.545929 -31.860281 nan nan nan 2.112026 5.894057 28.639971 0.219887 -5.912121 -1.849097 -1.369837 2.153776 3.278090 -10.077885 17.422996 3.605747 -0.101320 14.504394 21.289368 -9.206267 -19.712213 -8.199245 -36.037479 -31.625842 -7.088977 55.566924 -52.602248 -44.666215 25.979053 -28.458890 -26.788217 8.690386 14.951009 -0.390300 45.703104 12.472526 13.935213 -127.796223 82.480101 -109.258509 -25.934226 23.638190 -36.356109 
-1.156416 77.219940 93.634781 176.261178 -16.814490 69.160515 19.139805 4.559216 -56.921336 3.693628 23.108063 94.097171 -3.856506 6.630774 -30.619804 nan nan nan -14.449078 -1.719262 4.335851 -1.267271 10.047025 38.489908 -1.160124 -2.933525 -31.427733 nan nan nan 1.648419 6.625446 29.653467 -0.011325 -6.185660 -1.547879 -1.481012 2.588547 2.899277 -10.009521 17.614067 4.000954 0.112078 14.012507 21.318787 -8.033812 -20.275344 -8.416641 -34.397146 -31.525082 -8.149797 54.941149 -52.405423 -44.370181 26.423788 -28.568863 -27.022154 8.087957 15.480114 -0.566152 45.312911 12.610101 13.309097 -129.311453 81.507709 -110.864333 -25.740900 23.754905 -36.595024 
-1.623460 77.741539 94.183197 175.892814 -17.818975 68.466764 20.487096 5.599578 -58.563693 4.201184 23.324444 95.647886 -4.038693 6.571661 -30.993535 nan nan nan -16.080871 -1.793659 5.896949 -1.304736 10.842840 36.990169 -0.326400 -2.298075 -30.908245 nan nan nan 1.269869 7.437585 30.546700 -0.119884 -6.377426 -1.209501 -1.482026 2.723925 2.452509 -9.942795 17.756531 4.404202 0.143107 13.650117 21.437778 -6.915862 -20.583304 -8.487873 -33.167185 -31.399292 -9.166913 54.497877 -52.225124 -43.329197 27.250848 -28.417454 -28.079890 7.441506 15.822141 -0.776722 44.927836 12.965553 12.779044 -130.560298 80.799608 -111.741274 -25.969119 23.710782 -37.637386 
